<svg id="Lager_1" data-name="Lager 1" xmlns="http://www.w3.org/2000/svg" width="100%" height="38" viewBox="0 0 270 38"><defs><style>.cls-1{fill:#00005a;}</style></defs><title>Rityta 1</title><path class="cls-1" d="M9.75,15H4.47l-1.68,3.6H0L7.07,3.41h.08l7.07,15.21H11.36Zm-1-2.34-1.61-4-1.65,4Z"/><path class="cls-1" d="M25.43,18.62l-4.84-6.23v6.23H18V3.85h5.27a4.36,4.36,0,0,1,4.55,4.32c0,2.49-1.84,3.89-4.07,4.14l5.06,6.31ZM20.59,6.3v3.81h2.57a2,2,0,0,0,2-1.9A1.9,1.9,0,0,0,23.23,6.3Z"/><path class="cls-1" d="M130,18.62l-4.84-6.23v6.23h-2.64V3.85h5.28a4.35,4.35,0,0,1,4.54,4.32c0,2.49-1.83,3.89-4.07,4.14l5.06,6.31ZM125.18,6.3v3.81h2.56a2,2,0,0,0,2-1.9,1.89,1.89,0,0,0-1.9-1.91Z"/><path class="cls-1" d="M43.09,14.29c0,2.46-2,4.33-4.76,4.33H33.49V3.85h4.84A4.29,4.29,0,0,1,42.8,8.17a3.62,3.62,0,0,1-1.39,3A3.66,3.66,0,0,1,43.09,14.29Zm-7-8V9.93h2.23a1.72,1.72,0,0,0,1.83-1.79A1.77,1.77,0,0,0,38.33,6.3Zm4.25,8a2,2,0,0,0-2-1.9H36.1v3.73h2.23A1.91,1.91,0,0,0,40.35,14.29Z"/><path class="cls-1" d="M51.19,6.3V10h5.39v2.45H51.19v3.67h5.57v2.45H48.59V3.77h8.17V6.23H51.19Z"/><path class="cls-1" d="M65,6.3H61.2V3.85H71.38V6.3H67.61V18.62H65Z"/><path class="cls-1" d="M92.05,6.3V10h5.5v2.45h-5.5v6.16H89.52V3.81H97.7V6.27l-5.65,0Z"/><path class="cls-1" d="M102.13,11.21a7.92,7.92,0,0,1,15.83,0,7.92,7.92,0,0,1-15.83,0ZM104,1.54a1.54,1.54,0,0,1,3.07,0,1.54,1.54,0,0,1-3.07,0Zm11.25,9.67a5.25,5.25,0,0,0-10.49,0,5.25,5.25,0,0,0,10.49,0ZM113,1.5a1.54,1.54,0,0,1,3.08,0,1.54,1.54,0,0,1-3.08,0Z"/><path class="cls-1" d="M153.36,3.52v15.1h-2.64V9l-5,4.37-5-4.4v9.64h-2.64V3.52h0L145.7,10l7.55-6.48Z"/><path class="cls-1" d="M161.82,6.3V10h5.39v2.45h-5.39v3.67h5.57v2.45h-8.17V3.77h8.17V6.23h-5.57Z"/><path class="cls-1" d="M185.13,11.25c0,4.32-3.33,7.37-7.88,7.37h-3.92V3.85h3.92C181.8,3.85,185.13,6.89,185.13,11.25Zm-2.67,0c0-2.93-2.09-4.91-5.21-4.91h-1.32v9.78h1.32C180.37,16.12,182.46,14.14,182.46,11.25Z"/><path class="cls-1" d="M197.77,16.12v2.46H189.6V3.81h2.64V16.12Z"/><path class="cls-1" d="M202.43,3.81h2.64V18.62h-2.64Z"/><path class="cls-1" d="M223,3.85V18.91h0L213.53,9.6v9h-2.64V3.55h0l9.38,9.28v-9Z"/><path class="cls-1" d="M270,3.85V18.91h0L260.58,9.6v9h-2.64V3.55h0l9.42,9.28v-9Z"/><path class="cls-1" d="M239.29,18.62h-3.63c-4.58,0-7.88-3.08-7.88-7.37s3.34-7.4,7.88-7.4h2.53V6.3h-2.53c-3.11,0-5.2,2-5.2,4.91s2.09,4.91,5.2,4.91h1V12.46h-2.24V10h4.84Z"/><path class="cls-1" d="M247.17,6.3V10h5.39v2.45h-5.39v3.67h5.57v2.45h-8.17V3.77h8.17V6.23h-5.57Z"/><path class="cls-1" d="M75.49,16.12h4.65a1.92,1.92,0,0,0,1.91-1.94,1.89,1.89,0,0,0-1.91-1.9l-.66,0c-2.67,0-4.43-1.39-4.43-4.14s2-4.22,4.54-4.22h4.25V6.34H79.59a1.75,1.75,0,0,0-1.9,1.76c0,1.06.84,1.61,1.9,1.61l.66,0c2.79,0,4.44,1.5,4.44,4.43a4.33,4.33,0,0,1-4.55,4.44H75.49Z"/><path class="cls-1" d="M20.3,27.78l-4.4,9.45h0l-1.94-4.18L12,37.23h0L7.59,27.78h1.5L12,34.08l1.21-2.6-1.72-3.7H13l1,2.09,1-2.09h1.46l-1.72,3.66,1.21,2.64,2.9-6.3Z"/><path class="cls-1" d="M23.67,29.1v2.67h3.56v1.32H23.67v2.68H27.3v1.31h-5V27.85h5v1.32H23.67Z"/><path class="cls-1" d="M37.71,32.39a4.62,4.62,0,0,1-5,4.62H30.42V27.78h2.34A4.61,4.61,0,0,1,37.71,32.39Zm-1.39,0a3.27,3.27,0,0,0-3.52-3.33h-1v6.63h1A3.22,3.22,0,0,0,36.32,32.39Z"/><path class="cls-1" d="M40.24,27.78h1.39V37H40.24Z"/><path class="cls-1" d="M60.1,27.78V37H58.71v-4H54.2v4H52.81V27.78H54.2v3.95h4.51V27.78Z"/><path class="cls-1" d="M73.88,30.42a2.7,2.7,0,0,1-2.79,2.67H69.55V37H68.16V27.78h2.89A2.7,2.7,0,0,1,73.88,30.42Zm-1.36,0a1.36,1.36,0,0,0-1.39-1.36H69.59v2.71h1.54A1.34,1.34,0,0,0,72.52,30.42Z"/><path class="cls-1" d="M76.26,34.15V27.78h1.39v6.37a1.76,1.76,0,0,0,1.87,1.76,1.78,1.78,0,0,0,1.87-1.76V27.78h1.39v6.37a3,3,0,0,1-3.22,3.08A3,3,0,0,1,76.26,34.15Z"/><path class="cls-1" d="M91.61,34.37a2.64,2.64,0,0,1-2.89,2.68h-2.9V27.81h2.9a2.63,2.63,0,0,1,2.75,2.61,2.44,2.44,0,0,1-1,2A2.49,2.49,0,0,1,91.61,34.37ZM87.18,29.1v2.6h1.54a1.26,1.26,0,0,0,1.35-1.32,1.25,1.25,0,0,0-1.35-1.28Zm3,5.27A1.43,1.43,0,0,0,88.72,33H87.18v2.71h1.54A1.46,1.46,0,0,0,90.22,34.37Z"/><path class="cls-1" d="M99.38,35.73v1.32H94.47V27.81h1.39v8h3.52Z"/><path class="cls-1" d="M101.8,27.78h1.39V37H101.8Z"/><path class="cls-1" d="M105.65,32.39a4.61,4.61,0,0,1,4.94-4.61H112V29.1h-1.4a3.32,3.32,0,1,0,0,6.63H112v1.32h-1.4A4.67,4.67,0,0,1,105.65,32.39Z"/><path class="cls-1" d="M120.75,29.1v2.67h3.55v1.32h-3.55v2.68h3.62v1.31h-5V27.85h5v1.32h-3.62V29.1Z"/><path class="cls-1" d="M136.87,27.59V37h-1.39V30.42l-3.27,2.71L129,30.42V37H127.6V27.56h0l4.62,3.84,4.62-3.81Z"/><path class="cls-1" d="M146,30.42a2.69,2.69,0,0,1-2.78,2.67h-1.54V37l-1.39,0V27.81l2.89,0A2.69,2.69,0,0,1,146,30.42Zm-1.39,0a1.36,1.36,0,0,0-1.39-1.36h-1.54v2.71h1.54A1.32,1.32,0,0,0,144.6,30.42Z"/><path class="cls-1" d="M153.14,35.73v1.32h-4.91V27.81h1.39v8h3.52Z"/><path class="cls-1" d="M154.57,32.39a4.95,4.95,0,1,1,5,4.84A4.88,4.88,0,0,1,154.57,32.39Zm8.5,0a3.56,3.56,0,1,0-3.55,3.52A3.46,3.46,0,0,0,163.07,32.39Z"/><path class="cls-1" d="M169.56,32.54V37h-1.4V32.54l-2.82-4.76h1.54l2,3.33,2-3.33h1.54Z"/><path class="cls-1" d="M183.7,27.59V37h-1.39V30.42l-3.26,2.71-3.26-2.71V37h-1.4V27.56h0l4.62,3.84,4.65-3.81Z"/><path class="cls-1" d="M188.57,29.1v2.67h3.56v1.32h-3.56v2.68h3.63v1.31h-5V27.85h5v1.32h-3.63Z"/><path class="cls-1" d="M202.72,27.78v9.41h0l-5.86-6.33V37h-1.39V27.56h0l5.87,6.3V27.74l1.39,0Z"/><path class="cls-1" d="M207.37,29.1H205V27.78h6.19V29.1h-2.38V37h-1.4Z"/><path class="cls-1" d="M.7,35.73H3.48a1.4,1.4,0,1,0,0-2.79H3.15c-1.9,0-2.78-1.06-2.78-2.56a2.49,2.49,0,0,1,2.78-2.57h2.6v1.32H3.11a1.25,1.25,0,1,0,0,2.49h.33a2.54,2.54,0,0,1,2.83,2.72,2.63,2.63,0,0,1-2.83,2.71H.7Z"/><path class="cls-1" d="M44.67,35.73h2.79a1.4,1.4,0,1,0,0-2.79h-.33c-1.91,0-2.79-1.06-2.79-2.56a2.5,2.5,0,0,1,2.79-2.57h2.63v1.32H47.13a1.25,1.25,0,1,0,0,2.49h.33a2.54,2.54,0,0,1,2.82,2.72,2.63,2.63,0,0,1-2.82,2.71H44.71V35.73Z"/><path class="cls-1" d="M217.63,35.73h2.79a1.4,1.4,0,1,0,0-2.79h-.33c-1.91,0-2.79-1.06-2.79-2.56a2.5,2.5,0,0,1,2.79-2.57h2.64v1.32h-2.64a1.25,1.25,0,1,0,0,2.49h.33a2.54,2.54,0,0,1,2.82,2.72,2.63,2.63,0,0,1-2.82,2.71h-2.75l0-1.32Z"/><path class="cls-1" d="M227.57,29.1v2.67h3.55v1.32h-3.55v2.68h3.62v1.31h-5V27.85h5v1.32h-3.62Z"/><path class="cls-1" d="M239,37l-3.22-4.07V37h-1.4V27.78h3a2.62,2.62,0,1,1,0,5.24l3.23,4H239Zm-3.22-7.91v2.67h1.65a1.34,1.34,0,1,0,0-2.67Z"/><path class="cls-1" d="M250.21,27.78l-4.4,9.45h0l-4.4-9.45h1.5l2.9,6.3,2.89-6.3Z"/><path class="cls-1" d="M252.15,27.78h1.4V37h-1.4Z"/><path class="cls-1" d="M256.07,32.39A4.61,4.61,0,0,1,261,27.78h1.39V29.1H261a3.32,3.32,0,1,0,0,6.63h1.39v1.32H261C258.16,37,256.07,35.11,256.07,32.39Z"/><path class="cls-1" d="M266.37,29.1v2.67h3.56v1.32h-3.56v2.68H270v1.31h-5V27.85h5v1.32h-3.63Z"/></svg>
